<?xml version="1.0" standalone="no"?>
<!DOCTYPE svg PUBLIC "-//W3C//DTD SVG 20010904//EN"
 "http://www.w3.org/TR/2001/REC-SVG-20010904/DTD/svg10.dtd">
<svg version="1.0" xmlns="http://www.w3.org/2000/svg"
 width="1000.000000pt" height="1000.000000pt" viewBox="0 0 1000.000000 1000.000000"
 preserveAspectRatio="xMidYMid meet">
<metadata>
Created by potrace 1.14, written by Peter Selinger 2001-2017
</metadata>
<g transform="translate(0.000000,1000.000000) scale(0.100000,-0.100000)"
fill="#000000" stroke="none">
<path d="M4748 9996 c-1 -2 -50 -7 -108 -11 -141 -9 -174 -12 -218 -19 -20 -3
-59 -8 -87 -12 -27 -3 -57 -7 -65 -9 -8 -2 -35 -7 -60 -10 -48 -7 -80 -12
-120 -20 -14 -3 -61 -12 -105 -21 -101 -20 -307 -71 -362 -89 -23 -8 -52 -17
-65 -19 -13 -3 -70 -21 -128 -41 -58 -20 -109 -38 -115 -39 -5 -2 -21 -7 -35
-13 -14 -6 -50 -19 -80 -31 -236 -87 -587 -263 -840 -422 -86 -53 -301 -198
-310 -209 -3 -3 -43 -35 -90 -70 -75 -57 -116 -90 -234 -191 -145 -123 -383
-363 -506 -510 -30 -36 -57 -67 -60 -70 -21 -20 -168 -213 -231 -304 -43 -61
-82 -116 -86 -122 -4 -5 -13 -19 -20 -30 -75 -119 -110 -176 -131 -214 -13
-25 -29 -51 -35 -58 -12 -15 -29 -49 -133 -254 -41 -81 -74 -149 -74 -152 0
-2 -13 -33 -29 -68 -140 -306 -295 -837 -346 -1183 -4 -22 -11 -69 -16 -104
-5 -35 -12 -89 -15 -120 -3 -31 -7 -65 -9 -76 -19 -91 -27 -732 -12 -890 7
-73 13 -126 22 -209 3 -27 12 -94 21 -150 8 -55 17 -113 19 -128 2 -15 6 -35
9 -45 3 -10 7 -34 10 -53 3 -19 8 -44 10 -55 3 -11 12 -51 20 -88 54 -245 180
-633 282 -867 39 -89 200 -413 234 -469 14 -25 46 -80 71 -121 103 -176 301
-456 440 -623 188 -224 473 -510 656 -654 19 -15 45 -36 57 -46 35 -31 77 -64
156 -121 41 -31 80 -60 86 -65 17 -14 243 -163 289 -190 90 -53 115 -67 230
-130 338 -186 743 -345 1121 -442 83 -21 161 -40 175 -43 227 -45 372 -69 494
-81 28 -3 66 -7 85 -10 105 -14 263 -20 500 -20 230 0 483 10 500 20 3 1 37 6
75 9 39 4 81 9 95 11 62 8 117 16 140 20 14 3 41 7 60 10 61 10 233 46 295 62
33 8 67 16 75 18 19 4 103 27 195 54 134 39 393 132 487 175 31 14 59 26 62
26 25 0 451 215 518 262 14 10 29 18 32 18 23 0 526 343 556 379 3 3 39 33 80
66 189 151 459 414 620 604 25 29 55 65 68 80 23 26 246 321 270 357 170 256
346 569 434 774 126 291 203 510 273 774 52 199 106 468 121 611 2 22 6 54 9
70 15 100 20 235 20 600 0 354 -5 489 -20 588 -2 12 -8 63 -15 112 -6 50 -15
110 -20 135 -5 25 -12 62 -15 84 -3 21 -7 41 -9 45 -3 3 -7 27 -11 51 -12 83
-95 394 -146 545 -79 237 -164 442 -270 654 -96 190 -111 219 -174 326 -29 50
-189 294 -242 370 -54 78 -236 309 -263 335 -3 3 -39 43 -80 90 -92 104 -269
281 -375 375 -43 39 -86 77 -95 85 -28 27 -203 165 -275 218 -38 28 -74 55
-80 60 -21 17 -273 181 -346 225 -379 227 -842 420 -1291 537 -139 36 -358 82
-448 94 -19 3 -46 7 -60 10 -35 7 -173 24 -250 31 -36 4 -87 9 -115 11 -55 6
-641 14 -647 10z"/>
</g>
</svg>
